<svg xmlns="http://www.w3.org/2000/svg" viewBox="0 0 720 420" font-family="system-ui, -apple-system, sans-serif" font-size="14">
  <defs>
    <marker id="arrow1" markerWidth="10" markerHeight="7" refX="9" refY="3.5" orient="auto">
      <polygon points="0 0, 10 3.5, 0 7" fill="#059669"/>
    </marker>
    <marker id="arrow1b" markerWidth="10" markerHeight="7" refX="9" refY="3.5" orient="auto">
      <polygon points="0 0, 10 3.5, 0 7" fill="#2563eb"/>
    </marker>
  </defs>

  <!-- Title -->
  <text x="360" y="30" text-anchor="middle" font-size="16" font-weight="bold" fill="#1e293b">Scenario 1: Untagged packet tagged with home region (R1)</text>

  <!-- R1 zone -->
  <rect x="40" y="60" width="520" height="320" rx="16" fill="#eff6ff" stroke="#93c5fd" stroke-width="2" stroke-dasharray="8 4"/>
  <text x="60" y="88" font-size="13" font-weight="600" fill="#2563eb">R1 zone</text>

  <!-- R2 zone -->
  <rect x="580" y="60" width="120" height="160" rx="16" fill="#fef3c7" stroke="#fbbf24" stroke-width="2" stroke-dasharray="8 4"/>
  <text x="600" y="88" font-size="13" font-weight="600" fill="#b45309">R2 zone</text>

  <!-- R1-A (home=R1) -->
  <rect x="120" y="160" width="140" height="70" rx="10" fill="#ffffff" stroke="#2563eb" stroke-width="2"/>
  <text x="190" y="188" text-anchor="middle" font-weight="bold" fill="#1e293b">R1-A</text>
  <text x="190" y="210" text-anchor="middle" font-size="12" fill="#6b7280">home = R1</text>

  <!-- R1-B -->
  <rect x="380" y="110" width="120" height="56" rx="10" fill="#ffffff" stroke="#2563eb" stroke-width="2"/>
  <text x="440" y="144" text-anchor="middle" font-weight="bold" fill="#1e293b">R1-B</text>

  <!-- R1-C -->
  <rect x="380" y="230" width="120" height="56" rx="10" fill="#ffffff" stroke="#2563eb" stroke-width="2"/>
  <text x="440" y="264" text-anchor="middle" font-weight="bold" fill="#1e293b">R1-C</text>

  <!-- R2-A -->
  <rect x="600" y="120" width="80" height="56" rx="10" fill="#ffffff" stroke="#b45309" stroke-width="2"/>
  <text x="640" y="154" text-anchor="middle" font-weight="bold" fill="#1e293b">R2-A</text>

  <!-- Incoming untagged packet -->
  <line x1="10" y1="195" x2="115" y2="195" stroke="#059669" stroke-width="2.5" marker-end="url(#arrow1)"/>
  <rect x="2" y="168" width="95" height="22" rx="4" fill="#d1fae5"/>
  <text x="50" y="183" text-anchor="middle" font-size="11" font-weight="600" fill="#065f46">Untagged flood</text>

  <!-- Arrow R1-A to R1-B (tagged R1) -->
  <line x1="260" y1="180" x2="375" y2="145" stroke="#2563eb" stroke-width="2" marker-end="url(#arrow1b)"/>
  <rect x="278" y="144" width="72" height="20" rx="4" fill="#dbeafe"/>
  <text x="314" y="158" text-anchor="middle" font-size="11" font-weight="600" fill="#1e40af">tagged R1</text>

  <!-- Arrow R1-A to R1-C (tagged R1) -->
  <line x1="260" y1="210" x2="375" y2="250" stroke="#2563eb" stroke-width="2" marker-end="url(#arrow1b)"/>
  <rect x="278" y="234" width="72" height="20" rx="4" fill="#dbeafe"/>
  <text x="314" y="248" text-anchor="middle" font-size="11" font-weight="600" fill="#1e40af">tagged R1</text>

  <!-- Arrow R1-B to R2-A -->
  <line x1="500" y1="138" x2="595" y2="145" stroke="#2563eb" stroke-width="2" marker-end="url(#arrow1b)"/>

  <!-- Check marks -->
  <text x="510" y="138" font-size="18" fill="#059669">&#10004;</text>
  <text x="510" y="262" font-size="18" fill="#059669">&#10004;</text>
  <text x="682" y="152" font-size="18" fill="#059669">&#10004;</text>

  <!-- Explanation -->
  <rect x="40" y="350" width="520" height="24" rx="4" fill="#d1fae5"/>
  <text x="50" y="367" font-size="12" fill="#065f46">R1-A stamps untagged packet with R1. All neighbours in R1 accept and forward it.</text>
</svg>
